IDResults
version=1
nRows=115
nColumns=3
inDegrees=yes

Units are S.I. units (second, meters, Newtons, ...)
If the header above contains a line with 'inDegrees', this indicates whether rotational values are in degrees (yes) or radians (no).

endheader
time	r_shoulder_elev	r_elbow_flex
      0.00000000	     -4.98145017	     30.55585223
      0.00800000	     -4.96378863	     30.54405674
      0.01700000	     -4.95362724	     30.54784589
      0.02500000	     -4.94487129	     30.55173292
      0.03300000	     -4.94499372	     30.57858511
      0.04200000	     -4.94143593	     30.59996380
      0.05000000	     -4.93190597	     30.60458429
      0.05800000	     -4.93319494	     30.63964756
      0.06700000	     -4.92195425	     30.64591296
      0.07500000	     -4.91982303	     30.67631423
      0.08300000	     -4.90670432	     30.68227285
      0.09200000	     -4.90008403	     30.70794841
      0.10000000	     -4.88452456	     30.71409232
      0.10800000	     -4.86931690	     30.71989532
      0.11700000	     -4.85227649	     30.72619338
      0.12500000	     -4.83551041	     30.73179717
      0.13300000	     -4.80993797	     30.71547065
      0.14200000	     -4.79347144	     30.72090674
      0.15000000	     -4.76686875	     30.70090506
      0.15800000	     -4.74152411	     30.68794492
      0.16700000	     -4.71681796	     30.67386191
      0.17500000	     -4.69014998	     30.65640888
      0.18300000	     -4.66086365	     30.63487741
      0.19200000	     -4.63190822	     30.61496970
      0.20000000	     -4.60115635	     30.59126192
      0.20800000	     -4.56994809	     30.56884855
      0.21700000	     -4.53501337	     30.53865122
      0.22500000	     -4.49881585	     30.50703149
      0.23300000	     -4.46147593	     30.47403289
      0.24200000	     -4.42369777	     30.43926971
      0.25000000	     -4.38083955	     30.39750197
      0.25800000	     -4.33906259	     30.35670441
      0.26700000	     -4.29337586	     30.31020446
      0.27500000	     -4.24456780	     30.25844595
      0.28300000	     -4.19630476	     30.20572451
      0.29200000	     -4.14802816	     30.15694074
      0.30000000	     -4.10381332	     30.11465879
      0.30800000	     -4.06253031	     30.07986225
      0.31700000	     -4.02103472	     30.04379601
      0.32500000	     -3.98361052	     30.01636650
      0.33300000	     -3.94581587	     29.98724723
      0.34200000	     -3.91085170	     29.96549680
      0.35000000	     -3.87679233	     29.94338971
      0.35800000	     -3.84195738	     29.92103692
      0.36700000	     -3.80898481	     29.89946730
      0.37500000	     -3.77818742	     29.88274858
      0.38300000	     -3.74758121	     29.86305002
      0.39200000	     -3.71866445	     29.84714856
      0.40000000	     -3.69077069	     29.82871309
      0.40800000	     -3.66371861	     29.81118639
      0.41700000	     -3.63633333	     29.79203080
      0.42500000	     -3.61065027	     29.77547721
      0.43300000	     -3.58367221	     29.75494299
      0.44200000	     -3.55679730	     29.73163482
      0.45000000	     -3.52981766	     29.70811197
      0.45800000	     -3.50398748	     29.68596834
      0.46700000	     -3.47888276	     29.66329605
      0.47500000	     -3.45382035	     29.63842475
      0.48300000	     -3.43089951	     29.61578314
      0.49200000	     -3.40843102	     29.59200578
      0.50000000	     -3.38762911	     29.57220630
      0.50800000	     -3.36909577	     29.55282903
      0.51700000	     -3.35180845	     29.53298223
      0.52500000	     -3.33507161	     29.51480866
      0.53300000	     -3.31863549	     29.49542019
      0.54200000	     -3.30199245	     29.47322596
      0.55000000	     -3.28724964	     29.45241347
      0.55800000	     -3.27112841	     29.42739396
      0.56700000	     -3.25554862	     29.39969794
      0.57500000	     -3.24191908	     29.37273973
      0.58300000	     -3.22893722	     29.34419441
      0.59200000	     -3.21610323	     29.31203260
      0.60000000	     -3.20780443	     29.28468167
      0.60800000	     -3.20025217	     29.25512509
      0.61700000	     -3.19226793	     29.21842481
      0.62500000	     -3.18713280	     29.18629548
      0.63300000	     -3.18237154	     29.15003355
      0.64200000	     -3.17786079	     29.11531583
      0.65000000	     -3.17520489	     29.07945220
      0.65800000	     -3.17256104	     29.04324035
      0.66700000	     -3.16986844	     29.00460202
      0.67500000	     -3.16979283	     28.96973699
      0.68300000	     -3.17263862	     28.93963130
      0.69200000	     -3.17634008	     28.90692069
      0.70000000	     -3.18311184	     28.88243752
      0.70800000	     -3.19865164	     28.87439151
      0.71700000	     -3.20330013	     28.84062835
      0.72500000	     -3.21952959	     28.83349319
      0.73300000	     -3.22420696	     28.79709566
      0.74200000	     -3.23119307	     28.77006724
      0.75000000	     -3.23465593	     28.73625113
      0.75800000	     -3.23486839	     28.70091441
      0.76700000	     -3.23532462	     28.66390842
      0.77500000	     -3.23358523	     28.62666957
      0.78300000	     -3.23264189	     28.58930086
      0.79200000	     -3.22984833	     28.54768474
      0.80000000	     -3.22495039	     28.50361030
      0.80800000	     -3.22019172	     28.45820346
      0.81700000	     -3.21547079	     28.41747951
      0.82500000	     -3.20851462	     28.37172513
      0.83300000	     -3.20478208	     28.33679907
      0.84200000	     -3.19891515	     28.30007320
      0.85000000	     -3.19425513	     28.26723967
      0.85800000	     -3.18843771	     28.23318800
      0.86700000	     -3.18486640	     28.20472412
      0.87500000	     -3.18293443	     28.18227644
      0.88300000	     -3.18049037	     28.15814313
      0.89200000	     -3.17766612	     28.13544153
      0.90000000	     -3.17504565	     28.11411590
      0.90800000	     -3.17137566	     28.09260522
      0.91700000	     -3.16366150	     28.06566929
      0.92500000	     -3.15741816	     28.04408422
      0.93300000	     -3.15032903	     28.02299701
      0.94200000	     -3.14176739	     28.00163160
      0.95000000	     -3.13376873	     27.98436930
